# xmcd CD database file
#
# Track frame offsets:
#	195
#	12470
#	25670
#	42858
#	56220
#	71295
#	86620
#	102370
#	117020
#	130958
#	148408
#	166093
#
# Disc length: 2458 seconds
#
# Revision: 0
# Processed by: cddbd v1.5.1PL0 Copyright (c) Steve Scherf et al.
# Submitted via: CDex 1.51
#
DISCID=a009980c
DTITLE=JO JONES TRIO - JO JONES TRIO
DYEAR=1992
DGENRE=Jazz
TTITLE0=SWEET GEORGIA BROWN
TTITLE1=MY BLUE HEAVEN
TTITLE2=JIVE AT FIVE
TTITLE3=GREENSLEEVES
TTITLE4=WHEN YOUR LOVER HAS GONE
TTITLE5=PHILADELPHIA BOUND
TTITLE6=CLOSE YOUR EYES
TTITLE7=I GOT RHYTHM (PART 1)
TTITLE8=I GOT RHYTHM (PART 2)
TTITLE9=EMBRACEABLE
TTITLE10=BEBOP IRISHMAN
TTITLE11=LITTLE SUSIE
EXTD=YEAR: 1992
EXTT0=
EXTT1=
EXTT2=
EXTT3=
EXTT4=
EXTT5=
EXTT6=
EXTT7=
EXTT8=
EXTT9=
EXTT10=
EXTT11=
PLAYORDER=
